<svg xmlns="http://www.w3.org/2000/svg" width="1000" height="600" viewBox="0 0 1000 600">
  <defs>
    <linearGradient id="grad1" x1="0%" y1="0%" x2="100%" y2="100%">
      <stop offset="0%" style="stop-color:#2C7873;stop-opacity:1" />
      <stop offset="100%" style="stop-color:#49A18D;stop-opacity:1" />
    </linearGradient>
    <pattern id="pattern1" x="0" y="0" width="30" height="30" patternUnits="userSpaceOnUse">
      <circle cx="15" cy="15" r="1" fill="#FFFFFF" opacity="0.3" />
    </pattern>
  </defs>
  <rect width="1000" height="600" fill="url(#grad1)" />
  <rect width="1000" height="600" fill="url(#pattern1)" />
  
  <!-- 图形元素装饰 -->
  <circle cx="100" cy="150" r="80" fill="#FFFFFF" opacity="0.05" />
  <circle cx="850" cy="100" r="120" fill="#FFFFFF" opacity="0.05" />
  <circle cx="780" cy="500" r="150" fill="#FFFFFF" opacity="0.05" />
  <circle cx="200" cy="450" r="100" fill="#FFFFFF" opacity="0.05" />
  
  <!-- 电网线路图形 -->
  <path d="M0 300 L1000 300" stroke="#FFFFFF" stroke-width="1" opacity="0.1" />
  <path d="M0 150 L1000 150" stroke="#FFFFFF" stroke-width="1" opacity="0.1" />
  <path d="M0 450 L1000 450" stroke="#FFFFFF" stroke-width="1" opacity="0.1" />
  <path d="M500 0 L500 600" stroke="#FFFFFF" stroke-width="1" opacity="0.1" />
  <path d="M250 0 L250 600" stroke="#FFFFFF" stroke-width="1" opacity="0.1" />
  <path d="M750 0 L750 600" stroke="#FFFFFF" stroke-width="1" opacity="0.1" />
  
  <!-- 电站图形 -->
  <path d="M100 250 L150 200 L200 250 L200 300 L100 300 Z" fill="#FFFFFF" opacity="0.2" />
  <path d="M400 100 L450 50 L500 100 L500 150 L400 150 Z" fill="#FFFFFF" opacity="0.2" />
  <path d="M700 400 L750 350 L800 400 L800 450 L700 450 Z" fill="#FFFFFF" opacity="0.2" />
  
  <!-- 电网连线 -->
  <path d="M200 280 L400 120" stroke="#FFFFFF" stroke-width="2" opacity="0.2" />
  <path d="M500 130 L700 420" stroke="#FFFFFF" stroke-width="2" opacity="0.2" />
  <path d="M200 280 L700 420" stroke="#FFFFFF" stroke-width="2" opacity="0.2" />
</svg> 