<svg xmlns="http://www.w3.org/2000/svg" width="24" height="24" viewBox="0 0 24 24" fill="#07C160">
  <path d="M8.69 4.96C4.57 5.38 1.33 8.12 1.33 11.52c0 1.89 1.03 3.59 2.64 4.78l-0.66 1.98c-0.05 0.14 0 0.3 0.11 0.41 0.12 0.11 0.28 0.14 0.42 0.08l2.23-1.13c0.57 0.16 1.17 0.29 1.79 0.37 0.29 0.79 0.79 1.5 1.44 2.09-0.33 0.1-0.67 0.17-1.03 0.22-0.34 0.05-0.58 0.36-0.53 0.7 0.05 0.31 0.31 0.54 0.62 0.54h0.08c1.17-0.16 2.27-0.54 3.25-1.12 0.33 0.03 0.66 0.05 1 0.05 4.42 0 8-2.91 8-6.5 0-3.58-3.58-6.5-8-6.5-0.68 0-1.35 0.07-1.99 0.21-0.6-1.13-1.5-2.11-2.6-2.83-0.09-0.07-0.2-0.1-0.32-0.1-0.06 0-0.12 0-0.17 0.03-0.16 0.05-0.28 0.18-0.32 0.34l-0.26 0.92z"/>
  <circle cx="8" cy="11.5" r="1"/>
  <circle cx="14" cy="11.5" r="1"/>
</svg> 